<svg xmlns="http://www.w3.org/2000/svg" viewBox="0 0 80 80"><defs><style>.cls-1{fill:#fee4c4;}.cls-2{fill:none;stroke:#000;stroke-linecap:round;stroke-miterlimit:10;}</style></defs><g id="Layer_2" data-name="Layer 2"><g id="Layer_1-2" data-name="Layer 1"><rect class="cls-1" width="80" height="80" rx="14.68"/><line class="cls-2" x1="23.54" y1="19.82" x2="34.27" y2="19.82"/><path d="M26.06,20.08a3.59,3.59,0,0,0-.1.81,3.22,3.22,0,1,0,6.43,0,3.59,3.59,0,0,0-.1-.81Z"/><line class="cls-2" x1="45" y1="19.82" x2="55.72" y2="19.82"/><path d="M47.52,20.08a3.1,3.1,0,0,0-.11.81,3.22,3.22,0,1,0,6.44,0,3.1,3.1,0,0,0-.11-.81Z"/><line class="cls-2" x1="31.32" y1="33.76" x2="47.95" y2="33.76"/></g></g></svg>