<svg xmlns="http://www.w3.org/2000/svg" viewBox="0 0 80 80"><defs><style>.a{fill:#d3d3d3;}.b,.c{fill:none;stroke:#000;}.b{stroke-linecap:round;stroke-linejoin:round;}.c{stroke-miterlimit:10;}.d{fill:#fff;}</style></defs><circle class="a" cx="40" cy="40" r="40"/><path class="b" d="M33,16.14a6.9,6.9,0,0,1-1.75,3.16c-2.11,2.1-3.86,1.75-3.86,1.75"/><path class="b" d="M47,16.14s-.35,1.75,1.75,3.86,3.86,1.75,3.86,1.75"/><circle cx="31.51" cy="25.96" r="2.04"/><circle cx="47.79" cy="25.96" r="2.04"/><path class="c" d="M47,37.89c0,2.52-2.92.36-6.79.36S33,40.41,33,37.89s3.14-4.56,7-4.56S47,35.38,47,37.89Z"/><path class="d" d="M50.93,32c0,.82-.47,1.49-1,1.49s-1.06-.67-1.06-1.49a26,26,0,0,1,1.06-4A26.15,26.15,0,0,1,50.93,32Z"/></svg>