<svg xmlns="http://www.w3.org/2000/svg" viewBox="0 0 80 79.31"><defs><style>.a{fill:#fbd9d4;}.b{fill:none;stroke:#000;stroke-linecap:round;stroke-linejoin:round;}</style></defs><polygon class="a" points="51.01 79.31 40.03 69.92 28.24 79.06 25.48 64.85 9.22 66.53 15.35 52.83 0 45.71 10.28 36.37 3.5 23.21 17.88 20.54 18.6 6.17 31.8 12.94 40.52 0 48.26 12.31 62.3 6.66 62.19 20.54 77.02 24.04 68.52 36.37 80 46.62 65.99 52.83 70.31 67.22 55.86 64.85 51.01 79.31"/><line class="b" x1="27.69" y1="25.29" x2="34.02" y2="29.72"/><circle cx="31.1" cy="35.24" r="1.84"/><line class="b" x1="52.71" y1="25.29" x2="46.38" y2="29.72"/><circle cx="49.3" cy="35.24" r="1.84"/><polyline class="b" points="46.7 45.81 40.2 41.81 33.7 45.81"/></svg>