<svg xmlns="http://www.w3.org/2000/svg" viewBox="0 0 299.8 253.31"><defs><style>.cls-1{fill:#fef7bf;}.cls-2,.cls-4{fill:none;stroke:#000;}.cls-2{stroke-linecap:round;stroke-linejoin:round;}.cls-3{fill:#d3d3d3;}.cls-4{stroke-miterlimit:10;}.cls-5{fill:#fff;}.cls-6{fill:#fbd9d4;}.cls-7{fill:#ceeaf9;}</style></defs><g id="Layer_2" data-name="Layer 2"><g id="Layer_1-2" data-name="Layer 1"><circle class="cls-1" cx="203.8" cy="213.31" r="40"/><circle cx="191.87" cy="200.68" r="2.81"/><circle cx="214.33" cy="200.68" r="2.81"/><path class="cls-2" d="M194.33,206.65a9.75,9.75,0,0,0,18.24,0"/><circle class="cls-3" cx="40" cy="182.31" r="40"/><path class="cls-2" d="M33,158.46a6.85,6.85,0,0,1-1.75,3.15c-2.11,2.11-3.86,1.76-3.86,1.76"/><path class="cls-2" d="M47,158.46s-.35,1.75,1.75,3.85,3.86,1.76,3.86,1.76"/><circle cx="31.51" cy="168.28" r="2.04"/><circle cx="47.79" cy="168.28" r="2.04"/><path class="cls-4" d="M47,180.21c0,2.52-2.92.35-6.79.35S33,182.73,33,180.21s3.14-4.56,7-4.56S47,177.69,47,180.21Z"/><path class="cls-5" d="M50.93,174.33c0,.83-.47,1.5-1,1.5s-1.06-.67-1.06-1.5a26.28,26.28,0,0,1,1.06-4A26.48,26.48,0,0,1,50.93,174.33Z"/><polygon class="cls-6" points="134.61 79.31 123.64 69.92 111.84 79.06 109.08 64.85 92.82 66.53 98.95 52.83 83.6 45.71 93.88 36.37 87.1 23.21 101.48 20.54 102.2 6.17 115.41 12.94 124.12 0 131.86 12.31 145.9 6.66 145.79 20.54 160.62 24.04 152.12 36.37 163.6 46.62 149.59 52.83 153.91 67.22 139.46 64.85 134.61 79.31"/><line class="cls-2" x1="111.29" y1="25.29" x2="117.62" y2="29.72"/><circle cx="114.7" cy="35.24" r="1.84"/><line class="cls-2" x1="136.31" y1="25.29" x2="129.98" y2="29.72"/><circle cx="132.9" cy="35.24" r="1.84"/><polyline class="cls-2" points="130.3 45.81 123.8 41.81 117.3 45.81"/><circle class="cls-7" cx="259.8" cy="118.31" r="40"/><path class="cls-4" d="M266.3,128s.92,2.3,4.83,3.52a6,6,0,0,0,5.88-1.06"/><path class="cls-4" d="M254,128s-.92,2.3-4.83,3.52a6,6,0,0,1-5.88-1.06"/><path class="cls-4" d="M253.84,142.53s1.75-3.51,7-3.51a9.59,9.59,0,0,1,7.72,3.51"/></g></g></svg>