<svg xmlns="http://www.w3.org/2000/svg" viewBox="0 0 80 80"><defs><style>.cls-1{fill:#f4ddec;}.cls-2,.cls-3{fill:none;stroke:#000;stroke-linecap:round;stroke-miterlimit:10;}.cls-3{stroke-width:1.26px;}</style></defs><g id="Layer_2" data-name="Layer 2"><g id="Layer_1-2" data-name="Layer 1"><circle class="cls-1" cx="40" cy="40" r="40"/><path d="M32.43,24.3a9.37,9.37,0,0,1-1.8,1.19,9.61,9.61,0,0,1-3.34,1,3,3,0,1,0,5.14-2.2Z"/><path class="cls-2" d="M34.47,22a9.94,9.94,0,0,1-3.84,3.5c-3.84,1.9-6.07.62-6.07.62"/><path d="M48.31,24.19a10,10,0,0,0,5,2.39,3,3,0,1,1-5-2.39Z"/><path class="cls-2" d="M46.37,21.8a9.77,9.77,0,0,0,3.7,3.64c3.75,2.06,6,.86,6,.86"/><path class="cls-3" d="M27.15,36.84s2.23,2.72,3.13,2.7,3.23-2.81,4.12-2.7,2.78,2.72,3.62,2.7,2.63-2.83,3.56-2.7,2.26,2.7,3.07,2.7,2.77-2.7,3.63-2.7,2.25,2.7,3,2.7,3.32-2.7,3.32-2.7"/></g></g></svg>