<svg width="23" height="16" viewBox="0 0 23 16" fill="none" xmlns="http://www.w3.org/2000/svg">
<path d="M8.73893 3.05558C7.26895 5.99554 0.182261 12.5393 3.18594 11.2043C6.5601 9.70472 11.3305 -0.823339 10.3161 2.727C9.20133 6.62873 4.69648 9.37945 2.36449 12.5187C1.09555 14.2268 3.52748 12.135 3.77738 11.8944C5.38752 10.3439 7.32849 9.30333 9.06751 7.91855C12.2606 5.37594 12.6374 5.85592 10.3818 9.56145C8.56308 12.5494 7.29394 15.0582 10.5133 10.7443C11.7319 9.11137 12.7145 7.02792 14.3576 5.74993C16.1403 4.36343 12.8444 9.95984 12.649 10.4158C12.4118 10.9693 10.9561 13.4779 11.1376 13.9316C11.243 14.1952 13.1862 11.3483 13.339 11.1386C14.1517 10.0236 15.2013 9.17283 16.0663 8.1157C18.764 4.81839 15.0361 13.1362 14.5219 14.293C14.5146 14.3095 18.7913 10.5082 20.5678 10.1529" stroke="#E9DDD4" stroke-width="3" stroke-linecap="round"/>
</svg>
